<?xml version="1.0" standalone="no"?>
<!DOCTYPE svg PUBLIC "-//W3C//DTD SVG 20010904//EN"
 "http://www.w3.org/TR/2001/REC-SVG-20010904/DTD/svg10.dtd">
<svg version="1.0" xmlns="http://www.w3.org/2000/svg"
 width="1362.000000pt" height="1362.000000pt" viewBox="0 0 1362.000000 1362.000000"
 preserveAspectRatio="xMidYMid meet">
<metadata>
Created by potrace 1.11, written by Peter Selinger 2001-2013
</metadata>
<g transform="translate(0.000000,1362.000000) scale(0.100000,-0.100000)"
fill="#000000" stroke="none">
<path d="M6988 13518 c-146 -144 -204 -269 -168 -364 6 -15 64 -82 128 -148
178 -182 284 -323 348 -461 36 -78 57 -179 47 -228 l-6 -31 60 42 c248 175
357 340 309 467 -28 71 -95 122 -298 226 -207 107 -280 164 -323 255 -32 67
-42 164 -26 248 6 33 9 61 7 63 -2 3 -37 -29 -78 -69z"/>
<path d="M5689 12478 c-148 -202 -222 -376 -197 -466 5 -19 32 -59 59 -87 68
-72 141 -197 175 -302 25 -76 29 -103 29 -203 0 -101 -3 -120 -23 -159 l-24
-44 39 7 c84 16 220 69 284 112 111 73 166 171 157 278 -9 100 -54 162 -216
290 -143 113 -195 178 -226 285 -19 66 -20 209 -2 304 7 37 11 67 9 67 -2 0
-31 -37 -64 -82z"/>
<path d="M6835 12088 c58 -123 110 -277 137 -402 16 -79 21 -135 21 -256 0
-175 -17 -260 -77 -385 -42 -89 -81 -140 -226 -295 -326 -348 -489 -589 -552
-815 -74 -269 33 -536 307 -765 123 -102 237 -221 356 -370 145 -182 318 -422
319 -442 0 -13 -12 -18 -52 -22 -101 -10 -244 -15 -266 -9 -12 3 -43 35 -69
72 -136 193 -305 382 -458 509 -200 167 -361 249 -588 297 -271 58 -443 271
-464 578 l-6 87 -35 -57 c-62 -102 -170 -332 -218 -464 l-47 -129 -101 -94
c-353 -327 -655 -777 -841 -1255 -87 -224 -176 -554 -201 -747 l-6 -50 -132 4
c-215 7 -385 -31 -571 -126 -262 -135 -468 -373 -561 -649 -36 -108 -64 -270
-64 -374 0 -210 79 -459 203 -644 52 -78 184 -213 267 -275 148 -110 345 -189
531 -213 63 -8 103 -18 102 -25 -66 -321 -79 -643 -38 -932 61 -424 239 -841
519 -1215 108 -144 377 -418 525 -534 772 -609 1796 -873 2831 -730 639 88
1224 332 1720 715 143 110 401 365 508 501 428 544 635 1215 572 1854 -11 105
-45 313 -56 343 -5 13 1 16 29 16 57 0 207 29 292 56 361 117 648 421 751 794
31 113 44 348 25 466 -70 453 -401 821 -847 941 -90 25 -116 27 -284 27 l-186
1 -23 130 c-97 547 -320 1060 -651 1500 -114 152 -296 352 -403 445 -69 60
-75 69 -86 120 -27 133 -125 302 -250 433 -85 89 -165 150 -338 261 -243 154
-269 207 -224 456 84 461 24 801 -181 1025 -28 31 -52 54 -54 52 -2 -1 6 -36
16 -77 62 -242 47 -508 -41 -681 -48 -96 -77 -134 -190 -250 -124 -126 -171
-198 -177 -274 -9 -114 68 -199 332 -364 232 -144 369 -278 495 -483 113 -186
191 -401 191 -527 0 -37 -3 -40 -85 -94 -47 -32 -86 -57 -88 -57 -2 0 -7 55
-10 123 -11 254 -102 447 -296 629 -99 93 -212 173 -460 324 -289 176 -367
241 -417 348 -18 39 -24 68 -24 125 0 170 79 347 276 622 188 262 238 421 200
638 -43 246 -157 428 -351 557 -75 50 -231 123 -262 124 -7 0 7 -39 32 -92z
m-1215 -4005 c426 -84 854 -401 1155 -855 l58 -88 57 88 c118 183 329 414 485
533 485 371 1010 448 1371 201 66 -45 175 -154 221 -222 181 -267 224 -670
117 -1093 -36 -144 -94 -291 -179 -455 -41 -80 -75 -146 -75 -147 0 -1 44 -38
98 -82 110 -92 267 -251 361 -366 277 -341 459 -772 502 -1186 15 -148 8 -437
-12 -456 -21 -21 -444 -235 -604 -306 -671 -296 -1321 -463 -1990 -510 -211
-15 -674 -6 -875 16 -735 80 -1429 294 -2170 667 -129 66 -242 125 -249 133
-24 24 -28 337 -6 506 52 413 218 795 496 1138 86 107 300 321 397 395 34 27
62 50 62 52 0 2 -14 27 -31 55 -216 367 -322 808 -279 1157 60 477 346 790
769 842 82 10 222 3 321 -17z m-1906 -1399 c13 -5 16 -27 17 -133 1 -69 4
-171 8 -226 4 -55 6 -101 5 -103 -1 -1 -35 15 -75 37 -93 49 -196 81 -263 81
-139 0 -227 -149 -165 -277 26 -53 59 -77 150 -108 40 -14 90 -36 113 -49 123
-72 229 -211 291 -382 l22 -61 -70 -142 -71 -141 -96 0 c-312 0 -591 198 -700
499 -152 416 92 878 523 991 71 19 275 28 311 14z m6560 -14 c263 -67 477
-281 547 -546 28 -108 29 -269 1 -376 -57 -213 -195 -385 -393 -488 -108 -56
-208 -80 -335 -80 l-103 0 -77 156 -77 156 18 55 c64 188 218 350 382 403 93
30 137 60 162 112 65 135 -23 278 -169 278 -55 0 -170 -35 -252 -76 -27 -14
-51 -24 -52 -22 -1 2 3 101 8 220 8 186 11 218 25 221 9 3 66 5 127 6 81 1
132 -4 188 -19z m-6122 -3240 c927 -679 1709 -1032 2441 -1101 179 -16 524 -7
697 20 687 106 1390 446 2229 1078 96 73 176 131 178 129 12 -12 -104 -285
-173 -408 -435 -770 -1282 -1292 -2294 -1414 -300 -36 -734 -21 -1040 37 -526
100 -1033 329 -1417 640 -345 280 -622 655 -768 1037 -19 52 -35 98 -35 104 0
12 -4 15 182 -122z"/>
<path d="M5905 6673 c-117 -42 -191 -106 -243 -213 -24 -50 -27 -66 -27 -165
0 -100 3 -115 28 -166 43 -88 98 -143 185 -186 73 -36 80 -38 177 -38 93 0
105 2 167 33 178 87 266 285 209 470 -34 112 -100 189 -210 244 -54 27 -76 32
-150 35 -64 3 -99 -1 -136 -14z"/>
<path d="M7535 6677 c-114 -38 -195 -108 -247 -215 -31 -62 -33 -74 -33 -167
0 -93 2 -105 33 -167 42 -85 105 -148 190 -190 62 -31 74 -33 167 -33 92 0
106 3 167 32 85 40 151 106 191 191 29 61 32 75 32 167 0 92 -3 106 -32 167
-40 86 -106 151 -191 191 -55 26 -81 32 -152 34 -52 2 -101 -2 -125 -10z"/>
<path d="M6207 5166 c-60 -17 -115 -60 -147 -117 -20 -36 -25 -57 -25 -114 1
-93 14 -115 179 -306 155 -180 182 -199 287 -199 103 1 186 53 223 142 22 51
20 143 -3 194 -30 66 -274 345 -329 376 -58 33 -122 41 -185 24z"/>
<path d="M7328 5171 c-59 -19 -101 -57 -225 -201 -156 -183 -173 -212 -173
-295 0 -105 46 -180 135 -221 79 -37 185 -27 250 24 36 29 281 316 302 354 24
46 24 160 -1 208 -26 49 -64 88 -110 112 -44 23 -136 32 -178 19z"/>
<path d="M6425 11505 c3 -10 10 -52 15 -93 23 -182 -45 -341 -192 -445 -35
-25 -128 -77 -207 -116 -180 -90 -270 -151 -364 -251 -133 -138 -193 -308
-169 -474 21 -141 78 -287 174 -444 41 -68 174 -252 182 -252 2 0 -5 24 -16
53 -66 171 -92 308 -92 477 1 140 16 214 65 320 50 108 100 162 297 322 230
188 311 264 369 346 48 66 83 160 83 219 0 57 -29 153 -71 233 -41 78 -87 143
-74 105z"/>
<path d="M8492 11310 c-54 -83 -84 -173 -89 -275 -7 -116 10 -181 86 -345 76
-163 109 -264 125 -386 l13 -99 89 91 c99 101 148 175 181 273 28 82 28 114 2
193 -30 92 -83 161 -200 264 -122 106 -156 161 -167 268 l-7 67 -33 -51z"/>
<path d="M6864 1157 c-129 -132 -173 -233 -144 -323 9 -27 51 -78 134 -164
249 -257 365 -454 354 -600 l-4 -59 75 52 c104 71 222 191 255 259 37 75 42
119 22 172 -26 68 -87 115 -262 205 -179 91 -243 136 -291 202 -33 46 -63 139
-63 194 0 16 6 58 14 93 7 34 10 62 7 62 -3 0 -47 -42 -97 -93z"/>
</g>
</svg>
